<?xml version="1.0" encoding="UTF-8" standalone="no"?>
<!-- Created with Inkscape (http://www.inkscape.org/) -->

<svg
   xmlns:dc="http://purl.org/dc/elements/1.1/"
   xmlns:cc="http://creativecommons.org/ns#"
   xmlns:rdf="http://www.w3.org/1999/02/22-rdf-syntax-ns#"
   xmlns:svg="http://www.w3.org/2000/svg"
   xmlns="http://www.w3.org/2000/svg"
   xmlns:sodipodi="http://sodipodi.sourceforge.net/DTD/sodipodi-0.dtd"
   xmlns:inkscape="http://www.inkscape.org/namespaces/inkscape"
   width="86.402"
   height="131.28"
   viewBox="0 0 22.860529 34.734501"
   version="1.1"
   id="svg8"
   inkscape:version="0.92.1 r15371"
   sodipodi:docname="Узор.svg">
  <defs
     id="defs2" />
  <sodipodi:namedview
     id="base"
     pagecolor="#ffffff"
     bordercolor="#666666"
     borderopacity="1.0"
     inkscape:pageopacity="0.0"
     inkscape:pageshadow="2"
     inkscape:zoom="2"
     inkscape:cx="112.01605"
     inkscape:cy="87.993322"
     inkscape:document-units="mm"
     inkscape:current-layer="g48"
     showgrid="false"
     inkscape:window-width="1366"
     inkscape:window-height="706"
     inkscape:window-x="-8"
     inkscape:window-y="-8"
     inkscape:window-maximized="1"
     units="px" />
  <metadata
     id="metadata5">
    <rdf:RDF>
      <cc:Work
         rdf:about="">
        <dc:format>image/svg+xml</dc:format>
        <dc:type
           rdf:resource="http://purl.org/dc/dcmitype/StillImage" />
        <dc:title></dc:title>
      </cc:Work>
    </rdf:RDF>
  </metadata>
  <g
     inkscape:label="Layer 1"
     inkscape:groupmode="layer"
     id="layer1"
     transform="translate(0,-262.26547)">
    <g
       id="g48"
       transform="matrix(0.26458333,0,0,0.26458333,244.72186,89.914175)">
      <path
         inkscape:connector-curvature="0"
         id="path61"
         style="fill:#F1F1F1;fill-rule:evenodd"
         d="m -898.37153,731.82698 18.7087,-18.708 -19.0775,-19.0761 -11.7847,11.7848 12.6694,12.6694 5.1174,-5.1182 -6.3153,-6.315 c -0.6588,-0.6591 -0.6588,-1.7337 0,-2.3925 l 0.002,-10e-4 c 0.6593,-0.6591 1.7325,-0.6591 2.3927,0 l 6.315,6.3147 v 0 c 1.3167,1.3167 1.3167,3.4719 0,4.7886 l -5.1171,5.1171 c -1.3178,1.3167 -3.4719,1.3167 -4.7883,0 l -12.6694,-12.6694 -0.0414,-0.0417 -0.019,-0.019 c -1.2977,-1.3201 -1.2917,-3.4583 0.019,-4.769 v 0 l 0.0414,0.0417 11.7847,-11.7851 2.3936,-2.3936 19.171,-19.171 c 0.1794,-0.178 0.3739,-0.3347 0.5794,-0.4631 l -12.596,-12.5944 -12.4044,12.4044 5.1171,5.1183 6.3153,-6.3162 c 0.6587,-0.6587 1.7331,-0.6587 2.3921,0 l 10e-4,0.003 c 0.66,0.6587 0.66,1.7334 0,2.3924 l -6.3153,6.315 v 0 c -1.3167,1.3164 -3.4701,1.3164 -4.7868,0 l -5.1183,-5.1171 c -1.3169,-1.3167 -1.3169,-3.4716 0,-4.7882 v 0 l 0.0341,0.0328 c 0.1082,-0.1553 0.2349,-0.301 0.3727,-0.4402 l 11.9988,-11.9988 c 1.3167,-1.3166 3.4716,-1.3166 4.7883,0 l 27.5102,27.5106 c 1.3167,1.3167 1.3167,3.4716 0,4.788 v 0 c -0.146,0.265 -0.3334,0.513 -0.5579,0.7387 l -11.7575,11.7575 c -1.3167,1.3167 -3.4719,1.3167 -4.7886,0 l -5.1171,-5.1182 v 0 c -1.3167,-1.3167 -1.3167,-3.4705 0,-4.7872 l 4.6837,-4.6837 c 0.6591,-0.659 1.7325,-0.659 2.3927,0 l 9e-4,0.001 c 0.6593,0.6587 0.6593,1.7334 0,2.3924 l -4.6837,4.6837 5.1185,5.1171 12.4044,-12.4058 -12.6694,-12.6681 -19.6906,19.6909 19.0757,19.0772 21.43991,21.4384 17.2984,-17.2984 v 4.7883 l -14.9048,14.9045 14.9048,14.904 v 4.7894 l -17.2984,-17.2995 -11.78501,11.7847 12.40241,12.4025 5.1171,-5.1171 -6.315,-6.3153 c -0.6591,-0.6602 -0.6591,-1.7334 0,-2.3925 l 8e-4,-0.002 c 0.6591,-0.6593 1.7337,-0.6593 2.3924,0 l 6.3154,6.3148 c 1.3166,1.3167 1.3166,3.4716 0,4.7885 l -5.1171,5.1171 v 0 c -1.3167,1.3167 -3.4719,1.3167 -4.7886,0 l -12.40191,-12.4024 -2.3935,-2.3936 -12.4059,-12.4058 c -1.317,-1.3167 -1.317,-3.4702 0,-4.7871 v 0 l 5.1171,-5.1183 c 1.3179,-1.3167 3.4716,-1.3167 4.788,0 l 6.3153,6.3153 c 0.6602,0.6599 0.6602,1.7331 0,2.3922 l -0.001,0.002 c -0.6588,0.659 -1.7337,0.659 -2.3924,0 l -6.3153,-6.3151 -5.1171,5.1171 12.4049,12.4062 11.78451,-11.7854 -19.04491,-19.0457 -18.7126,18.705 -2.3933,2.3936 -12.4061,12.4058 c -1.3167,1.317 -3.4716,1.317 -4.788,0 l -9.3631,-9.3379 v -4.7894 l 11.7578,11.7329 12.4044,-12.405 -19.3501,-19.351 -4.8121,4.7872 v -4.7883 l 2.4171,-2.3925 -2.4171,-2.3927 v -4.7883 l 26.5572,26.5312 z m 59.84021,-21.7468 -16.6524,-16.6535 -12.47951,12.4792 11.75751,11.7576 5.1171,-5.1171 -4.6828,-4.6837 c -0.6599,-0.6591 -0.6599,-1.7334 0,-2.3922 l 10e-4,-10e-4 c 0.6591,-0.6591 1.7334,-0.6591 2.3922,0 l 4.6837,4.6825 c 1.3169,1.3179 1.3169,3.4719 0,4.7886 v 0 l -5.1183,5.1168 c -1.3167,1.3181 -3.4702,1.3181 -4.7869,0 l -11.75751,-11.7575 c -1.3167,-1.3164 -1.3167,-3.4705 0,-4.7872 l 12.47951,-12.4792 2.3936,-2.3947 16.6524,-16.6516 v 4.7872 l -14.2591,14.2591 14.2591,14.2588 z m 0,-42.8732 -9.1358,-9.136 -11.75751,11.7575 5.11681,5.1171 4.6837,-4.6837 c 0.6593,-0.659 1.7325,-0.659 2.3924,0 l 0.002,0.002 c 0.659,0.6591 0.659,1.7334 0,2.3922 l -4.6837,4.6828 c -1.3167,1.3167 -3.4708,1.3167 -4.7875,0 l -5.11821,-5.1171 v 0 c -1.3167,-1.317 -1.3167,-3.4719 0,-4.7883 l 11.75751,-11.7575 c 1.3167,-1.3167 3.4716,-1.3167 4.7886,0 v 0 l 6.7422,6.7427 z m 0,28.6759 -2.9194,-2.9191 v 0 c -1.3167,-1.3167 -1.3167,-3.4708 0,-4.7886 l 2.9194,-2.9185 v 4.7888 l -0.5247,0.5247 0.5247,0.5247 z m 0,43.7961 -2.4196,-2.4196 c -1.3167,-1.3167 -1.3167,-3.4713 0,-4.788 l 2.4196,-2.4191 v 4.788 l -0.0246,0.0246 0.0246,0.0247 z m 0,42.9296 -3.0926,-3.0929 c -1.3167,-1.3167 -1.3167,-3.4716 0,-4.7883 l 3.0926,-3.0926 v 4.7883 l -0.699,0.699 0.699,0.6991 z m 0,-19.4652 -14.7849,14.7835 -2.3936,2.3941 -2.3655,2.3655 h -4.78771 l 4.75961,-4.7596 2.3936,-2.3933 17.1785,-17.1785 z m -86.40141,-33.0911 2.7238,-2.698 v 0 c 1.3167,-1.3167 3.4702,-1.3167 4.7869,0 l 4.6839,4.6822 c 0.6588,0.6594 0.6588,1.7337 0,2.3925 l -0.001,0.002 c -0.6602,0.6588 -1.7334,0.6588 -2.3924,0 l -4.6837,-4.6837 -5.1174,5.0925 z m 0,19.4099 4.4714,4.4465 2.3935,2.3947 11.7576,11.7575 0.0606,0.0607 0.0582,0.064 0.0581,0.0641 0.0547,0.0677 0.0536,0.0667 0.0507,0.0674 0.0499,0.0689 0.0462,0.0689 0.0451,0.0711 10e-4,10e-4 0.0428,0.0711 0.0391,0.0726 0.002,10e-4 0.0405,0.0726 0.0723,0.1494 0.0334,0.0751 0.0321,0.0745 0.002,10e-4 0.0275,0.0762 9e-4,9e-4 0.0275,0.0762 10e-4,10e-4 0.0488,0.1545 10e-4,10e-4 0.021,0.0796 0.0201,0.0783 0.0178,0.0796 0.003,10e-4 0.0142,0.0785 0.0153,0.0805 -9e-4,10e-4 0.0236,0.1593 -10e-4,0.002 0.01,0.0797 0.007,0.0808 0.005,0.0822 0.002,0.0805 0.002,0.0819 v 0.0805 l -0.002,0.001 -0.002,0.0808 -0.004,0.0796 -9e-4,0.002 -0.007,0.0797 -0.01,0.0808 10e-4,0.002 -0.0105,0.0785 -10e-4,0.001 -0.0116,0.0793 9e-4,10e-4 -0.0139,0.0782 -10e-4,0.003 -0.0142,0.0785 -0.003,0.001 -0.0178,0.0797 -0.0201,0.0782 -0.021,0.0782 -10e-4,0.002 -0.0488,0.1545 -10e-4,10e-4 -0.0275,0.0757 -9e-4,10e-4 -0.0275,0.0757 -0.002,10e-4 -0.0321,0.0737 -0.032,0.0746 -0.001,10e-4 -0.0723,0.1497 -0.0405,0.0723 -0.002,10e-4 -0.0383,0.0711 -8e-4,0.001 -0.0428,0.0711 -10e-4,10e-4 -0.0426,0.0686 -0.002,0.003 -0.0451,0.0677 -10e-4,0.001 -0.0485,0.0674 -0.001,0.001 -0.0499,0.0667 -8e-4,10e-4 -0.0525,0.0641 -0.001,0.002 -0.0536,0.0652 -10e-4,9e-4 -0.057,0.0632 -10e-4,0.002 -0.0562,0.0615 -0.002,0.003 -0.0595,0.0592 -10e-4,9e-4 -9.8385,9.8387 h -8.7012 l -0.0828,-0.0723 v -4.7874 l 4.4439,4.4183 11.785,-11.785 -11.7575,-11.7576 -4.4714,4.4465 v -4.7883 l 2.0764,-2.0517 -2.0764,-2.0518 z m 0,22.1726 3.2474,-3.2224 c 0.6613,-0.6562 1.7331,-0.6588 2.3924,0 l 10e-4,0.002 c 0.66,0.6593 0.6611,1.7342 0,2.3924 l -5.6409,5.6163 z m 0,-99.648 2.4151,-2.3899 -2.4151,-2.3899 v -4.788 l 19.0962,18.7989 c 1.3266,1.3059 1.3167,3.4707 0,4.7874 l -0.0273,-0.0275 c -0.0915,0.121 -0.1913,0.2364 -0.3004,0.3455 l -11.7576,11.7576 c -1.3164,1.3164 -3.4704,1.3164 -4.7883,0 l -2.2226,-2.198 v -4.788 l 4.6174,4.5921 12.0806,-12.0801 -11.753,-11.753 -0.1363,0.1366 -4.8087,4.7835 z m 0,13.2699 1.7892,-1.764 c 0.6636,-0.6543 1.7337,-0.6591 2.3928,0 l 8e-4,0.001 c 0.6591,0.6587 0.6608,1.7353 0,2.3924 l -4.1828,4.159 z m 18.5797,97.4298 h 4.7874 l 1.9029,-1.9026 0.8025,-0.8016 2.3936,-2.3947 19.0117,-19.0117 12.4024,12.4021 -11.7085,11.7085 h 4.7886 l 9.3135,-9.3135 v 0 c 1.3178,-1.3169 1.3178,-3.4718 0,-4.7885 l -12.4025,-12.4022 -2.3935,-2.3933 -12.4059,-12.4061 c -1.3164,-1.3167 -3.4701,-1.3167 -4.7868,0 l -11.7576,11.7576 c -1.3169,1.3169 -1.3169,3.4716 0,4.7882 l 5.1171,5.1172 v 0 c 1.3167,1.3166 3.4716,1.3166 4.7883,0 l 4.6826,-4.6837 c 0.6602,-0.6591 0.6602,-1.7323 0,-2.3925 l -10e-4,-0.001 c -0.6587,-0.6591 -1.7336,-0.6591 -2.3924,0 l -4.6837,4.6837 -5.1174,-5.1183 11.7576,-11.7575 12.4061,12.4058 -19.012,19.012 -2.3944,2.3933 -0.8017,0.8028 z m 24.7062,0 h 4.7877 l -5.0681,-5.068 4.6837,-4.684 c 0.6591,-0.6588 0.6591,-1.732 0,-2.3921 l -0.002,-10e-4 c -0.6591,-0.6587 -1.7334,-0.6587 -2.3925,0 l -4.6825,4.684 c -1.3179,1.3167 -1.3179,3.4705 0,4.7869 z m 23.57151,-131.28 h -4.78771 l -8.1604,8.1496 c -1.2215,1.222 0.1012,3.9656 2.3936,2.3935 z m -13.89711,0 h -4.7886 l -0.0502,0.0544 -0.0479,-0.0544 h -4.7877 l 2.4432,2.4329 v 0 c 1.3169,1.3167 3.4673,1.3136 4.7871,0 z m -29.5932,0 h -4.7874 l -7.8786,7.8669 c -1.889,2.1184 0.7373,4.1817 2.3935,2.3936 z m -14.5831,0 h -8.7012 l 1.9666,1.9354 v 0 c 1.3167,1.3167 3.4677,1.3128 4.788,0 z m 10.3122,34.5988 z m -16.8736,12.0756 z m 7.1405,50.936 z m 62.05721,-28.9599 z m -16.54441,-11.7575 z m 29.10591,24.1719 z m -0.673,42.256 z m -64.78131,-16.7987 z m 11.7576,-16.5458 z m 10.3269,38.6289 z m 36.61911,-26.3846 z m -27.20191,-27.2016 z m 18.20211,-49.0864 z m -22.08331,22.0867 z m -16.6762,21.4648 z m 6.27,-66.2596 z" />
    </g>
  </g>
</svg>
