<?xml version="1.0" encoding="UTF-8"?>
<!DOCTYPE svg PUBLIC "-//W3C//DTD SVG 1.1//EN" "http://www.w3.org/Graphics/SVG/1.1/DTD/svg11.dtd">
<!-- Creator: CorelDRAW 2018 (64-Bit) -->
<svg xmlns="http://www.w3.org/2000/svg" xml:space="preserve" width="16.9332mm" height="16.9332mm" version="1.1" style="shape-rendering:geometricPrecision; text-rendering:geometricPrecision; image-rendering:optimizeQuality; fill-rule:evenodd; clip-rule:evenodd"
viewBox="0 0 1693.32 1693.32"
 xmlns:xlink="http://www.w3.org/1999/xlink">
 <defs>
  <style type="text/css">
   <![CDATA[
    .fil0 {fill:black}
   ]]>
  </style>
 </defs>
 <g id="Слой_x0020_1">
  <metadata id="CorelCorpID_0Corel-Layer"/>
  <path class="fil0" d="M827.58 359.92c-25.84,0.29 -51.62,2.05 -76.95,12.28 -30.57,12.36 -60.51,37.06 -88.88,64.07 -28.36,27 -55.16,56.31 -87.39,77.04 -32.26,20.73 -69.94,32.87 -113.27,46.47 -43.34,13.61 -92.32,28.68 -132.93,43.75 -40.62,15.08 -72.86,30.16 -101.13,54.43 -28.25,24.29 -52.54,57.79 -66.36,91.5 -13.81,33.71 -17.16,67.62 -14.87,92.95 2.31,25.33 10.27,42.08 20.93,52.12 10.68,10.05 24.09,13.41 37.9,11.53 13.81,-1.89 28.06,-9.02 40.61,-21.78 8.24,-8.37 15.76,-19.19 21.91,-31.27l198.26 0c-6.64,-12.2 -9.68,-25.82 -9.16,-39.27l0 -0.17 0.19 -3.27 -173.98 0c3.65,-12.74 7.79,-25.51 15.76,-37.38 12.76,-19.07 35.38,-35.81 85.42,-53.83 50.03,-18 127.5,-37.24 188.4,-57.35 60.94,-20.1 105.31,-41.03 136.62,-62.29 31.29,-21.24 49.5,-42.81 69.81,-54.74 20.32,-11.92 42.72,-14.24 65.11,-16.54 22.4,2.3 44.8,4.62 65.11,16.54 20.32,11.93 38.53,33.5 69.82,54.74 31.31,21.26 75.68,42.19 136.61,62.29 60.91,20.11 138.38,39.35 188.41,57.35 50.05,18.02 72.66,34.76 85.42,53.83 7.97,11.87 12.11,24.64 15.76,37.38l-273.37 0c6.7,6.68 13.2,13.59 19.43,20.71 6.23,7.12 12.23,14.45 17.97,22l251.28 0c6.14,12.08 13.67,22.9 21.9,31.27 12.56,12.76 26.81,19.89 40.62,21.78 13.81,1.88 27.22,-1.48 37.9,-11.53 10.66,-10.04 18.62,-26.79 20.93,-52.12 2.29,-25.33 -1.05,-59.24 -14.86,-92.95 -13.83,-33.71 -38.12,-67.21 -66.37,-91.5 -28.27,-24.27 -60.51,-39.35 -101.13,-54.43 -40.61,-15.07 -89.6,-30.14 -132.93,-43.75 -43.34,-13.6 -81.02,-25.74 -113.27,-46.47 -32.24,-20.73 -59.03,-50.04 -87.39,-77.04 -28.37,-27.01 -58.31,-51.71 -88.88,-64.07 -25.34,-10.23 -51.11,-11.99 -76.95,-12.28l0 -92.33c52.76,-7.74 93.27,-53.18 93.27,-108.09 0,-60.35 -48.93,-109.27 -109.28,-109.27 -54.65,0 -99.9,40.1 -107.97,92.48 -12.6,5.64 -21.38,18.28 -21.38,32.96 0,19.93 16.16,36.1 36.09,36.1 19.94,0 36.11,-16.17 36.11,-36.1 0,-13.56 -7.5,-25.39 -18.57,-31.56 7.14,-35.28 38.33,-61.86 75.72,-61.86 42.67,0 77.25,34.59 77.25,77.25 0,42.67 -34.58,77.26 -77.25,77.26l-16 0 0 123.16zm-253.13 1282.7l0 -103.14 35.41 0 23.45 66.13 0.58 0 22.44 -66.13 35.98 0 0 103.14 -24.32 0 0.58 -72.99 -0.44 0 -26.81 72.99 -17.47 0 -26.09 -72.99 -0.43 0 0.58 72.99 -23.46 0zm139.14 0l0 -103.14 24.63 0 0 67.88 0.58 0 39.62 -67.88 26.22 0 0 103.14 -24.61 0 0 -66.29 -0.45 0 -39.32 66.29 -26.67 0zm112.33 0l0 -103.14 24.92 0 0 39.03 40.2 0 0 -39.03 24.92 0 0 103.14 -24.92 0 0 -43.13 -40.2 0 0 43.13 -24.92 0zm125 1.75c-6.5,0 -11.99,-0.58 -16.46,-1.75l3.05 -20.54c3.41,1.07 6.52,1.6 9.33,1.6 4.18,0 7.33,-1.04 9.47,-3.13 2.13,-2.09 4.46,-5.61 7,-10.57l0.43 -0.87 -39.33 -69.63 28.7 0 24.19 47.05 22.71 -47.05 27.98 0 -38.61 73.42c-2.33,4.37 -4.22,7.81 -5.67,10.35 -1.46,2.52 -3.39,5.33 -5.77,8.45 -2.37,3.1 -4.72,5.43 -7.06,6.99 -2.33,1.55 -5.19,2.89 -8.6,4.01 -3.39,1.11 -7.18,1.67 -11.36,1.67zm107.67 -1.75l0 -81.87 -29.15 0 0 -21.27 83.19 0 0 21.27 -29.12 0 0 81.87 -24.92 0zm-260.88 -404.95l-65.46 0 0 -202.6 -51.44 39.74 -33.88 -46.37 90.77 -66.63 60.01 0 0 275.86zm241.88 -194.43c4.02,16.87 6.05,35.46 6.05,55.72 0,20.27 -2.03,38.96 -6.05,56.1 -4.01,17.14 -10.13,32.54 -18.3,46.17 -8.18,13.63 -19.36,24.36 -33.52,32.16 -14.15,7.79 -30.71,11.68 -49.67,11.68 -24.94,0 -45.79,-6.88 -62.53,-20.64 -16.76,-13.76 -28.58,-31.26 -35.46,-52.42 -6.87,-21.17 -10.33,-45.52 -10.33,-73.05 0,-20.26 2.02,-38.85 6.05,-55.72 4.01,-16.88 10.18,-32.08 18.49,-45.59 8.31,-13.5 19.62,-24.11 33.91,-31.76 14.26,-7.65 30.9,-11.49 49.87,-11.49 18.96,0 35.53,3.84 49.67,11.49 14.16,7.65 25.34,18.27 33.52,31.76 8.17,13.51 14.3,28.72 18.3,45.59zm-60.96 55.72c0,-10.14 -0.52,-19.82 -1.56,-29.03 -1.03,-9.22 -2.93,-18.65 -5.65,-28.25 -2.71,-9.6 -6.97,-17.33 -12.67,-23.19 -5.7,-5.84 -12.6,-8.76 -20.65,-8.76 -8.05,0 -14.99,2.94 -20.85,8.76 -5.84,5.86 -10.14,13.59 -12.86,23.19 -2.72,9.6 -4.68,19.03 -5.84,28.25 -1.16,9.21 -1.76,18.89 -1.76,29.03 0,10.12 0.6,19.88 1.76,29.23 1.17,9.35 3.13,18.89 5.84,28.62 2.73,9.74 6.96,17.55 12.66,23.39 5.72,5.84 12.73,8.77 21.05,8.77 8.05,0 14.95,-2.93 20.65,-8.77 5.7,-5.84 9.94,-13.65 12.67,-23.39 2.71,-9.73 4.61,-19.21 5.65,-28.43 1.04,-9.22 1.56,-19.03 1.56,-29.42zm-86.8 -361.44c178.98,23.6 317.13,176.77 317.13,362.2 0,201.79 -163.59,365.38 -365.38,365.38 -201.79,0 -365.38,-163.59 -365.38,-365.38 0,-93.08 34.82,-178.05 92.14,-242.55l-15.35 -16.62 -0.38 0.35c-13.41,12.39 -34.49,11.56 -46.88,-1.84l0 0c-12.38,-13.39 -11.54,-34.48 1.85,-46.86l50.91 -47.07c13.4,-12.38 34.48,-11.54 46.87,1.85l0 0c12.38,13.39 11.55,34.49 -1.85,46.87l-0.38 0.35 15.12 16.36c49.74,-38.48 109.68,-64.42 175.1,-73.04l0 -31.69 -0.75 0c-25.77,0 -46.87,-21.1 -46.87,-46.87l0 0c0,-25.78 21.1,-46.86 46.87,-46.86l97.96 0c25.78,0 46.87,21.08 46.87,46.86l0 0c0,25.77 -21.09,46.87 -46.87,46.87l-0.73 0 0 31.69zm-48.25 77.29c157.35,0 284.92,127.56 284.92,284.91 0,157.35 -127.57,284.92 -284.92,284.92 -157.35,0 -284.91,-127.57 -284.91,-284.92 0,-157.35 127.56,-284.91 284.91,-284.91z"/>
 </g>
</svg>
