<?xml version="1.0" encoding="UTF-8"?>
<!DOCTYPE svg PUBLIC "-//W3C//DTD SVG 1.1//EN" "http://www.w3.org/Graphics/SVG/1.1/DTD/svg11.dtd">
<!-- Creator: CorelDRAW 2018 (64-Bit) -->
<svg xmlns="http://www.w3.org/2000/svg" xml:space="preserve" width="16.9332mm" height="16.9332mm" version="1.1" style="shape-rendering:geometricPrecision; text-rendering:geometricPrecision; image-rendering:optimizeQuality; fill-rule:evenodd; clip-rule:evenodd"
viewBox="0 0 1693.32 1693.32"
 xmlns:xlink="http://www.w3.org/1999/xlink">
 <defs>
  <style type="text/css">
   <![CDATA[
    .fil0 {fill:black}
   ]]>
  </style>
 </defs>
 <g id="Слой_x0020_1">
  <metadata id="CorelCorpID_0Corel-Layer"/>
  <path class="fil0" d="M248.14 1428.52l0 -1227.73c0,-64.64 52.86,-117.5 117.49,-117.5l873.21 0c64.64,0 117.48,52.86 117.48,117.5l0 324.19 -52.68 0 0 -308.23c0,-21.38 -8.74,-40.82 -22.91,-54.88 -14.08,-14.05 -33.49,-22.8 -54.78,-22.8l-839.93 0c-21.38,0 -40.8,8.74 -54.86,22.92 -14.05,14.07 -22.8,33.46 -22.8,54.76l0 1090.76c0,21.29 8.75,40.68 22.8,54.88 14.06,14.06 33.48,22.79 54.86,22.79l552.31 0 0 160.85 -572.7 0c-64.63,0 -117.49,-52.86 -117.49,-117.51zm769.03 -851.89l70.42 0 0 30.9c0,9.06 7.39,16.45 16.43,16.45l247.4 0c9.04,0 16.43,-7.39 16.43,-16.45l0 -30.9 70.41 0c16.69,0 30.36,13.66 30.36,30.36l0 971.74c0,16.71 -13.67,30.36 -30.36,30.36l-421.09 0c-16.7,0 -30.36,-13.65 -30.36,-30.36l0 -971.74c0,-16.7 13.66,-30.36 30.36,-30.36zm-282.08 888.88l0 -0.03c0,-15.33 12.54,-27.87 27.89,-27.87l86.02 0c15.35,0 27.9,12.54 27.9,27.87l0 0.03c0,15.35 -12.55,27.88 -27.9,27.88l-86.02 0c-15.35,0 -27.89,-12.53 -27.89,-27.88zm-364.9 -1248.76l0 1090.76c0,4.4 1.77,8.38 4.6,11.24 2.92,2.81 6.89,4.6 11.23,4.6l552.31 0 0 -740.44c0,-31.86 26.07,-57.93 57.93,-57.93l245.55 0 0 -308.23c0,-4.34 -1.8,-8.33 -4.66,-11.19 -2.8,-2.89 -6.8,-4.66 -11.2,-4.66l-839.93 0c-4.34,0 -8.31,1.8 -11.17,4.66 -2.89,2.8 -4.66,6.79 -4.66,11.19z"/>
 </g>
</svg>
